# xmcd
#
# Track frame offsets:
#	150
#	15894
#	31885
#	48816
#	65880
#
# Disc length: 1098 seconds
#
# Revision: 0
# Processed by: cddbd v1.5.2PL0 Copyright (c) Steve Scherf et al.
# Submitted via: EasyCDDAExtractor 2011.3.0.0
#
DISCID=33044805
DTITLE=Florida Georgia Line - It'z Just What We Do
DYEAR=2012
DGENRE=Country
TTITLE0=Cruise
TTITLE1=Get Your Shine On
TTITLE2=Tip It Back
TTITLE3=Tell Me How You Like It
TTITLE4=It'z Just What We Do
EXTD=
EXTT0=
EXTT1=
EXTT2=
EXTT3=
EXTT4=
PLAYORDER=
